<svg id="Calque_1" data-name="Calque 1" xmlns="http://www.w3.org/2000/svg" xmlns:xlink="http://www.w3.org/1999/xlink" viewBox="0 0 1080 345"><defs><style>.cls-1{fill:url(#Dégradé_sans_nom_18);}.cls-2{fill:url(#Dégradé_sans_nom_18-2);}.cls-3{fill:url(#Dégradé_sans_nom_18-3);}.cls-4{fill:url(#Dégradé_sans_nom_18-4);}.cls-5{fill:url(#Dégradé_sans_nom_18-5);}.cls-6{fill:url(#Dégradé_sans_nom_18-6);}.cls-7{fill:url(#Dégradé_sans_nom_18-7);}.cls-8{fill:url(#Dégradé_sans_nom_18-8);}.cls-9{fill:url(#Dégradé_sans_nom_18-9);}.cls-10{fill:url(#Dégradé_sans_nom_18-10);}.cls-11{fill:#fff;}</style><linearGradient id="Dégradé_sans_nom_18" x1="828.27" y1="75.2" x2="828.27" y2="199.21" gradientUnits="userSpaceOnUse"><stop offset="0" stop-color="#002a61"/><stop offset="1" stop-color="#ff3eff"/></linearGradient><linearGradient id="Dégradé_sans_nom_18-2" x1="334.83" y1="75.2" x2="334.83" y2="199.21" xlink:href="#Dégradé_sans_nom_18"/><linearGradient id="Dégradé_sans_nom_18-3" x1="409.75" y1="75.2" x2="409.75" y2="199.21" xlink:href="#Dégradé_sans_nom_18"/><linearGradient id="Dégradé_sans_nom_18-4" x1="501.27" y1="75.2" x2="501.27" y2="199.21" xlink:href="#Dégradé_sans_nom_18"/><linearGradient id="Dégradé_sans_nom_18-5" x1="582.91" y1="75.2" x2="582.91" y2="199.21" xlink:href="#Dégradé_sans_nom_18"/><linearGradient id="Dégradé_sans_nom_18-6" x1="668.27" y1="75.2" x2="668.27" y2="199.21" xlink:href="#Dégradé_sans_nom_18"/><linearGradient id="Dégradé_sans_nom_18-7" x1="756.57" y1="75.2" x2="756.57" y2="199.21" xlink:href="#Dégradé_sans_nom_18"/><linearGradient id="Dégradé_sans_nom_18-8" x1="913.06" y1="75.2" x2="913.06" y2="199.21" xlink:href="#Dégradé_sans_nom_18"/><linearGradient id="Dégradé_sans_nom_18-9" x1="343.73" y1="75.2" x2="343.73" y2="199.21" xlink:href="#Dégradé_sans_nom_18"/><linearGradient id="Dégradé_sans_nom_18-10" x1="119.36" y1="176.52" x2="276.91" y2="176.52" xlink:href="#Dégradé_sans_nom_18"/></defs><title>LOGO FACTUREO</title><path class="cls-1" d="M858.9,126.1h0a12.6,12.6,0,0,1-12.6,12.6H832a22.4,22.4,0,0,0-22.4,22.4v6.2h39a6,6,0,0,1,6,6h0a6,6,0,0,1-6,6h-39v10.1a22.1,22.1,0,0,0,22.1,22.1h16.5A12.8,12.8,0,0,1,861,224.2H832a36.5,36.5,0,0,1-36.4-36.4V161.2a35.2,35.2,0,0,1,35.2-35.2Z"/><path class="cls-2" d="M366.8,133.7h0a6.3,6.3,0,0,1-6.3,6.3H346.2a28.7,28.7,0,0,0-28.7,28.7v50.6a6.3,6.3,0,0,1-6.3,6.3h-2a6.3,6.3,0,0,1-6.3-6.3V168.9a41.5,41.5,0,0,1,41.5-41.5h16.1A6.3,6.3,0,0,1,366.8,133.7Z"/><path class="cls-3" d="M410.1,126.8c26.8,0,38.4,16.8,38.4,36.4v55.7a7.4,7.4,0,0,1-7.4,7.4h0a7.4,7.4,0,0,1-7.4-7.4V198.8H385v20.5a7,7,0,0,1-7,7h0a7,7,0,0,1-7-7V163.2C371,146.4,383,126.8,410.1,126.8ZM385,163.2v23.7h48.8V163.2c0-14.6-9.1-23.8-23.7-24C397.6,139.2,385,146.3,385,163.2Z"/><path class="cls-4" d="M538.5,139.9l-.8.8a13.1,13.1,0,0,1-16.1,2,26.1,26.1,0,0,0-13.9-3.5c-18.4,0-32.7,18.9-32.7,37.3s14.3,37.3,32.7,37.3a31.4,31.4,0,0,0,17.3-5.2,12.6,12.6,0,0,1,15.4,1.3l1.9,1.7A45.4,45.4,0,0,1,507.6,227c-27.8,0-47.4-22.7-47.4-50.5s19.6-50.5,47.4-50.5C521.7,126.1,530.2,130.7,538.5,139.9Z"/><path class="cls-5" d="M575.9,127.5h37.5a6,6,0,0,1,6,6h0a6,6,0,0,1-6,6H589.9v79.2a7,7,0,0,1-7,7h0a7,7,0,0,1-7-7V139.4H552.4a6,6,0,0,1-6-6h0a6,6,0,0,1,6-6Z"/><path class="cls-6" d="M707.4,189.9c0,17.5-10.9,36.4-39.1,36.4s-39.1-16.8-39.1-36.4V134.4a7.7,7.7,0,0,1,7.7-7.7h0a7.7,7.7,0,0,1,7.7,7.7v55.5c0,14.6,9.1,23.8,23.7,24,12.5,0,25.1-7,25.1-24V133.7a7,7,0,0,1,7-7h0a7,7,0,0,1,7,7Z"/><path class="cls-7" d="M744.2,127.5h11.1c25.8,0,33.1,16.1,33.1,29.2s-4.9,24.5-20.6,28.9l24.1,40.1h-2.7a23.2,23.2,0,0,1-19.9-11.2L752.9,187H735.3v24.5a14,14,0,0,1-14,14h0V127.5Zm-9,12.6v34.5h20c12.2,0,18.9-7.1,18.9-17.9,0-8.4-6.9-16.5-18.9-16.5Z"/><path class="cls-8" d="M960.6,176.5c0,27.6-21.2,50.5-47.7,50.5s-47.5-22.8-47.5-50.5,21-50.5,47.5-50.5S960.6,149.1,960.6,176.5Zm-80,0c0,20.6,14.2,36.2,32.4,36.2s32.5-15.6,32.5-36.2-14.2-36-32.5-36S880.6,156.1,880.6,176.5Z"/><rect class="cls-9" x="320.7" y="170.6" width="46.1" height="11.91" rx="5.1" ry="5.1"/><path class="cls-10" d="M220.9,97.7h56.1a0,0,0,0,1,0,0V255.3a0,0,0,0,1,0,0H119.4a0,0,0,0,1,0,0V199.2A101.5,101.5,0,0,1,220.9,97.7Z"/><path class="cls-11" d="M241.2,126H223.1a48.7,48.7,0,0,0-48.6,48.6v56.7a9.1,9.1,0,0,0,9.1,9.1h2.2a9.1,9.1,0,0,0,9.1-9.1V174.5a30.3,30.3,0,0,1,30.3-30.3h16.1a9.1,9.1,0,0,0,0-18.2Z"/><rect class="cls-11" x="200.2" y="177.5" width="49.1" height="15.39" rx="6.1" ry="6.1"/><path class="cls-11" d="M243.2,178.5a5.1,5.1,0,0,1,5.1,5.1v3.2a5.1,5.1,0,0,1-5.1,5.1H206.3a5.1,5.1,0,0,1-5.1-5.1v-3.2a5.1,5.1,0,0,1,5.1-5.1h36.9m0-2H206.3a7.1,7.1,0,0,0-7.1,7.1v3.2a7.1,7.1,0,0,0,7.1,7.1h36.9a7.1,7.1,0,0,0,7.1-7.1v-3.2a7.1,7.1,0,0,0-7.1-7.1Z"/></svg>