<svg width="210" height="58" viewBox="0 0 210 58" fill="none" xmlns="http://www.w3.org/2000/svg">
<path d="M37 49H0V35C0 22.2975 10.2975 12 23 12H37V49ZM15.4004 18.96C14.9204 18.96 14.4935 19.1338 14.1201 19.4805C13.7736 19.8271 13.5997 20.2666 13.5996 20.7998V44.1602C13.5996 44.6668 13.7735 45.1072 14.1201 45.4805C14.4934 45.827 14.9205 46 15.4004 46H16.5195C17.026 46 17.4532 45.8269 17.7998 45.4805C18.1731 45.1072 18.3603 44.6668 18.3604 44.1602V35.3604C18.3604 35.0404 18.5199 34.8799 18.8398 34.8799H27.7197C28.253 34.8799 28.6934 34.7069 29.04 34.3604C29.3867 33.987 29.5596 33.5467 29.5596 33.04V31.9199C29.5596 31.4133 29.3867 30.9863 29.04 30.6396C28.6934 30.2931 28.253 30.1201 27.7197 30.1201H18.8398C18.5199 30.1201 18.3604 29.9328 18.3604 29.5596V24.2402C18.3604 23.8936 18.5199 23.7198 18.8398 23.7197H29.1602C29.6401 23.7197 30.0538 23.5468 30.4004 23.2002C30.7737 22.8269 30.96 22.3865 30.96 21.8799V20.7998C30.9599 20.2668 30.7734 19.827 30.4004 19.4805C30.0538 19.1338 29.6401 18.96 29.1602 18.96H15.4004Z" fill="white"/>
<path d="M60.96 21.88C60.96 22.3867 60.7733 22.8267 60.4 23.2C60.0533 23.5467 59.64 23.72 59.16 23.72H48.84C48.52 23.72 48.36 23.8933 48.36 24.24V29.56C48.36 29.9333 48.52 30.12 48.84 30.12H57.72C58.2533 30.12 58.6933 30.2933 59.04 30.64C59.3867 30.9867 59.56 31.4133 59.56 31.92V33.04C59.56 33.5467 59.3867 33.9867 59.04 34.36C58.6933 34.7067 58.2533 34.88 57.72 34.88H48.84C48.52 34.88 48.36 35.04 48.36 35.36V44.16C48.36 44.6667 48.1733 45.1067 47.8 45.48C47.4533 45.8267 47.0267 46 46.52 46H45.4C44.92 46 44.4933 45.8267 44.12 45.48C43.7733 45.1067 43.6 44.6667 43.6 44.16V20.8C43.6 20.2667 43.7733 19.8267 44.12 19.48C44.4933 19.1333 44.92 18.96 45.4 18.96H59.16C59.64 18.96 60.0533 19.1333 60.4 19.48C60.7733 19.8267 60.96 20.2667 60.96 20.8V21.88ZM81.2331 43.6C81.3931 44.2133 81.2998 44.7733 80.9531 45.28C80.6065 45.76 80.1131 46 79.4731 46H78.3131C77.9398 46 77.5798 45.88 77.2331 45.64C76.9131 45.4 76.6865 45.1067 76.5531 44.76L75.0331 40.16C74.9265 39.8133 74.6998 39.64 74.3531 39.64H67.5131C67.1665 39.64 66.9398 39.8133 66.8331 40.16L65.3131 44.76C65.1798 45.1067 64.9531 45.4 64.6331 45.64C64.3131 45.88 63.9531 46 63.5531 46H62.3931C61.7531 46 61.2598 45.76 60.9131 45.28C60.5398 44.7467 60.4598 44.1867 60.6731 43.6L68.4331 20.2C68.5665 19.8267 68.7798 19.5333 69.0731 19.32C69.3931 19.08 69.7398 18.96 70.1131 18.96H71.7531C72.1265 18.96 72.4731 19.08 72.7931 19.32C73.1131 19.5333 73.3265 19.8267 73.4331 20.2L81.2331 43.6ZM73.1531 34.4L71.1531 28.28C71.0198 28.0933 70.8731 28.0933 70.7131 28.28L68.7131 34.4C68.6598 34.5333 68.6731 34.6533 68.7531 34.76C68.8331 34.8667 68.9398 34.92 69.0731 34.92H72.7931C72.9265 34.92 73.0331 34.8667 73.1131 34.76C73.1931 34.6533 73.2065 34.5333 73.1531 34.4ZM102.298 40.72C102.298 41.68 102.058 42.56 101.578 43.36C101.098 44.16 100.458 44.8 99.6584 45.28C98.8584 45.76 97.9784 46 97.0184 46H89.8184C88.8584 46 87.9651 45.76 87.1384 45.28C86.3384 44.8 85.6984 44.16 85.2184 43.36C84.7384 42.56 84.4984 41.68 84.4984 40.72V24.28C84.4984 23.2933 84.7384 22.4 85.2184 21.6C85.6984 20.8 86.3384 20.16 87.1384 19.68C87.9651 19.2 88.8584 18.96 89.8184 18.96H97.0184C97.9784 18.96 98.8584 19.2 99.6584 19.68C100.458 20.16 101.098 20.8 101.578 21.6C102.058 22.4 102.298 23.2933 102.298 24.28V25.36C102.298 25.8667 102.125 26.2933 101.778 26.64C101.432 26.9867 100.992 27.16 100.458 27.16H99.3784C98.8718 27.16 98.4318 26.9867 98.0584 26.64C97.7118 26.2933 97.5384 25.8667 97.5384 25.36V24.28C97.5384 23.9067 97.3651 23.72 97.0184 23.72H89.8184C89.4718 23.72 89.2984 23.9067 89.2984 24.28V40.72C89.2984 40.8533 89.3518 40.9867 89.4584 41.12C89.5651 41.2267 89.6851 41.28 89.8184 41.28H97.0184C97.1518 41.28 97.2718 41.2267 97.3784 41.12C97.4851 40.9867 97.5384 40.8533 97.5384 40.72V39.52C97.5384 39.0133 97.7118 38.5867 98.0584 38.24C98.4318 37.8667 98.8718 37.68 99.3784 37.68H100.458C100.992 37.68 101.432 37.8667 101.778 38.24C102.125 38.5867 102.298 39.0133 102.298 39.52V40.72ZM123.393 21.88C123.393 22.3867 123.22 22.8267 122.873 23.2C122.526 23.5467 122.086 23.72 121.553 23.72H117.353C117.006 23.72 116.833 23.8933 116.833 24.24V44.16C116.833 44.6667 116.646 45.1067 116.273 45.48C115.926 45.8267 115.5 46 114.993 46H113.953C113.446 46 113.006 45.8267 112.633 45.48C112.286 45.1067 112.113 44.6667 112.113 44.16V24.24C112.113 23.8933 111.94 23.72 111.593 23.72H107.353C106.846 23.72 106.406 23.5467 106.033 23.2C105.686 22.8267 105.513 22.3867 105.513 21.88V20.8C105.513 20.2667 105.686 19.8267 106.033 19.48C106.406 19.1333 106.846 18.96 107.353 18.96H121.553C122.086 18.96 122.526 19.1333 122.873 19.48C123.22 19.8267 123.393 20.2667 123.393 20.8V21.88ZM144.408 40.72C144.408 41.68 144.168 42.56 143.688 43.36C143.208 44.16 142.568 44.8 141.768 45.28C140.968 45.76 140.088 46 139.128 46H131.928C130.968 46 130.074 45.76 129.248 45.28C128.448 44.8 127.808 44.16 127.328 43.36C126.848 42.56 126.608 41.68 126.608 40.72V20.8C126.608 20.2667 126.781 19.8267 127.128 19.48C127.501 19.1333 127.941 18.96 128.448 18.96H129.568C130.074 18.96 130.501 19.1333 130.848 19.48C131.221 19.8267 131.408 20.2667 131.408 20.8V40.72C131.408 40.8533 131.461 40.9867 131.568 41.12C131.674 41.2267 131.794 41.28 131.928 41.28H139.128C139.261 41.28 139.381 41.2267 139.488 41.12C139.594 40.9867 139.648 40.8533 139.648 40.72V20.8C139.648 20.2667 139.821 19.8267 140.168 19.48C140.541 19.1333 140.981 18.96 141.488 18.96H142.568C143.101 18.96 143.541 19.1333 143.888 19.48C144.234 19.8267 144.408 20.2667 144.408 20.8V40.72ZM165.783 43.48C166.049 44.0933 166.009 44.6533 165.663 45.16C165.263 45.72 164.756 46 164.143 46H162.943C162.596 46 162.249 45.8933 161.903 45.68C161.583 45.4667 161.356 45.2 161.223 44.88L157.463 35.88C157.329 35.56 157.089 35.4 156.743 35.4H153.023C152.676 35.4 152.503 35.5733 152.503 35.92V44.16C152.503 44.6667 152.316 45.1067 151.942 45.48C151.596 45.8267 151.169 46 150.663 46H149.543C149.036 46 148.609 45.8267 148.263 45.48C147.943 45.1067 147.783 44.6667 147.783 44.16V20.8C147.783 20.2667 147.943 19.8267 148.263 19.48C148.609 19.1333 149.036 18.96 149.543 18.96H160.383C161.343 18.96 162.223 19.2 163.023 19.68C163.823 20.16 164.463 20.8 164.943 21.6C165.423 22.4 165.663 23.2933 165.663 24.28V30.12C165.663 31.16 165.383 32.1067 164.823 32.96C164.289 33.7867 163.583 34.4267 162.703 34.88C162.596 34.9067 162.516 35 162.463 35.16C162.409 35.2933 162.423 35.4267 162.503 35.56L165.783 43.48ZM160.903 30.12V24.28C160.903 23.9067 160.729 23.72 160.383 23.72H153.023C152.676 23.72 152.503 23.8933 152.503 24.24V30.12C152.503 30.4667 152.676 30.64 153.023 30.64H160.383C160.729 30.64 160.903 30.4667 160.903 30.12ZM186.585 44.16C186.585 44.6667 186.398 45.1067 186.025 45.48C185.678 45.8267 185.265 46 184.785 46H171.025C170.545 46 170.118 45.8267 169.745 45.48C169.398 45.1067 169.225 44.6667 169.225 44.16V20.8C169.225 20.2667 169.398 19.8267 169.745 19.48C170.118 19.1333 170.545 18.96 171.025 18.96H184.785C185.265 18.96 185.678 19.1333 186.025 19.48C186.398 19.8267 186.585 20.2667 186.585 20.8V21.88C186.585 22.3867 186.398 22.8267 186.025 23.2C185.678 23.5467 185.265 23.72 184.785 23.72H174.465C174.145 23.72 173.985 23.8933 173.985 24.24V29.56C173.985 29.9333 174.145 30.12 174.465 30.12H183.345C183.878 30.12 184.318 30.2933 184.665 30.64C185.012 30.9867 185.185 31.4133 185.185 31.92V33.04C185.185 33.5467 185.012 33.9867 184.665 34.36C184.318 34.7067 183.878 34.88 183.345 34.88H174.465C174.145 34.88 173.985 35.04 173.985 35.36V40.76C173.985 41.1067 174.145 41.28 174.465 41.28H184.785C185.265 41.28 185.678 41.4533 186.025 41.8C186.398 42.1467 186.585 42.5867 186.585 43.12V44.16ZM208.092 40.72C208.092 41.68 207.852 42.56 207.372 43.36C206.892 44.16 206.252 44.8 205.452 45.28C204.652 45.76 203.772 46 202.812 46H195.132C194.172 46 193.279 45.76 192.452 45.28C191.652 44.8 191.012 44.16 190.532 43.36C190.052 42.56 189.812 41.68 189.812 40.72V24.28C189.812 23.2933 190.052 22.4 190.532 21.6C191.012 20.8 191.652 20.16 192.452 19.68C193.279 19.2 194.172 18.96 195.132 18.96H202.812C203.772 18.96 204.652 19.2 205.452 19.68C206.252 20.16 206.892 20.8 207.372 21.6C207.852 22.4 208.092 23.2933 208.092 24.28V40.72ZM203.332 40.72V24.28C203.332 23.9067 203.159 23.72 202.812 23.72H195.132C194.999 23.72 194.865 23.7733 194.732 23.88C194.625 23.9867 194.572 24.12 194.572 24.28V40.72C194.572 40.8533 194.625 40.9867 194.732 41.12C194.865 41.2267 194.999 41.28 195.132 41.28H202.812C202.945 41.28 203.065 41.2267 203.172 41.12C203.279 40.9867 203.332 40.8533 203.332 40.72Z" fill="white"/>
</svg>
